#!OML:ASF I:\Actors\actors\Patient Classification 1\Patient 1\Session 1\Subject1.ASF
:FULLY-SPECIFIED
:DEGREES
423
root 0.786596 17.4795 9.77341 9.60723 -2.98331 -8.11047
lowerback -3.94984 2.57334 8.25944
upperback -8.63508 3.48531 0.30585
thorax -6.41866 1.22405 -4.3301
lowerneck -6.94695 -4.61869 -2.80323
upperneck 29.8668 -8.59614 8.10341
head 11.2995 -3.33216 2.44179
rclavicle 2.127e-014 -2.90226e-014
rhumerus 15.8715 41.492 -68.7543
rradius 137.348
rwrist -20.6644
rhand 1.91604 -67.6736
rfingers 7.12502
rthumb 27.4243 95.6975
lclavicle 2.127e-014 -2.90226e-014
lhumerus -67.2472 49.641 30.924
lradius 25.3068
lwrist -10.8594
lhand -32.824 -17.5218
lfingers 7.12502
lthumb -6.04433 12.372
rfemur -2.68658 24.6074 24.6144
rtibia 3.4496
rfoot -13.3642 -25.0041
rtoes 3.51426
lfemur 9.30444 -45.5101 -17.1497
ltibia -5.08877
lfoot -29.3092 54.8731
ltoes 17.6
424
root 0.786673 17.479 9.76794 9.53056 -2.65895 -8.08153
lowerback -4.42687 2.44924 8.00683
upperback -8.38591 3.26817 0.531323
thorax -5.92345 1.16817 -3.92419
lowerneck -7.38482 -4.56099 -3.17422
upperneck 29.7823 -8.51502 8.37581
head 11.3799 -3.29351 2.6056
rclavicle 3.11098e-014 7.15625e-015
rhumerus 17.3377 41.3754 -67.4895
rradius 137.178
rwrist -20.4362
rhand 1.70661 -67.0137
rfingers 7.12502
rthumb 27.224 95.0692
lclavicle 3.11098e-014 7.15625e-015
lhumerus -66.1467 51.2875 31.8379
lradius 25.77
lwrist -12.1457
lhand -31.6709 -20.9178
lfingers 7.12502
lthumb -4.93092 9.00483
rfemur -2.56636 24.5989 24.6556
rtibia 3.42002
rfoot -13.5411 -25.2784
rtoes 3.93933
lfemur 9.16863 -45.469 -17.0464
ltibia -5.03706
lfoot -28.827 54.5958
ltoes 17.1657
425
root 0.785249 17.4778 9.76146 9.48522 -2.37809 -8.08239
lowerback -4.16239 2.48162 8.1014
upperback -8.69058 3.35296 0.46056
thorax -6.38943 1.17456 -4.0707
lowerneck -7.0841 -4.6018 -3.25312
upperneck 29.5218 -8.56653 8.49096
head 11.2304 -3.32805 2.65792
rclavicle -1.18277e-014 3.89618e-014
rhumerus 17.486 41.1105 -67.1107
rradius 137.135
rwrist -20.3965
rhand 1.56544 -66.6346
rfingers 7.12502
rthumb 27.0889 94.7112
lclavicle -1.18277e-014 3.89618e-014
lhumerus -64.4475 51.8499 33.428
lradius 26.4687
lwrist -12.5197
lhand -31.0128 -22.8227
lfingers 7.12502
lthumb -4.29547 7.11373
rfemur -2.51021 24.6567 24.7149
rtibia 3.43101
rfoot -13.7151 -25.5577
rtoes 4.33997
lfemur 9.0169 -45.4554 -16.8876
ltibia -5.01004
lfoot -28.5331 54.3571
ltoes 16.9241
426
root 0.783958 17.4781 9.7542 9.41145 -2.13459 -8.11947
lowerback -4.14765 2.52497 8.13884
upperback -8.7447 3.41663 0.463335
thorax -6.44796 1.20051 -4.09057
lowerneck -7.13049 -4.67756 -3.42097
upperneck 29.2855 -8.66695 8.65181
head 11.1718 -3.378 2.72862
rclavicle -9.44227e-015 -2.0276e-014
rhumerus 18.1911 40.6462 -66.2708
rradius 137.065
rwrist -20.3389
rhand 1.54724 -66.3337
rfingers 7.12502
rthumb 27.0715 94.413
lclavicle -9.44227e-015 -2.0276e-014
lhumerus -61.3269 51.9302 36.8806
lradius 27.328
lwrist -12.1228
lhand -30.6778 -23.581
lfingers 7.12502
lthumb -3.97197 6.36176
rfemur -2.43864 24.6192 24.8262
rtibia 3.46739
rfoot -13.7902 -25.7465
rtoes 4.3095
lfemur 8.90206 -45.3276 -16.6991
ltibia -5.01428
lfoot -27.9862 54.1174
ltoes 16.4731
427
root 0.78412 17.4788 9.74761 9.3173 -1.90459 -8.1463
lowerback -4.05927 2.59661 8.21501
upperback -8.8117 3.52338 0.399629
thorax -6.55189 1.24049 -4.20604
lowerneck -7.17352 -4.78686 -3.40266
upperneck 28.9757 -8.83218 8.77834
head 11.0801 -3.44337 2.74484
rclavicle 7.35503e-015 3.49861e-014
rhumerus 18.7382 40.1227 -65.5639
rradius 136.987
rwrist -19.9825
rhand 1.49656 -66.0144
rfingers 7.12502
rthumb 27.023 94.1012
lclavicle 7.35503e-015 3.49861e-014
lhumerus -58.0997 51.5422 40.3294
lradius 27.9756
lwrist -12.2389
lhand -30.2257 -25.4543
lfingers 7.12502
lthumb -3.53541 4.49614
rfemur -2.32732 24.5225 24.9289
rtibia 3.47377
rfoot -13.8539 -25.8502
rtoes 4.27392
lfemur 8.81977 -45.1398 -16.5578
ltibia -5.01264
lfoot -27.2847 53.8751
ltoes 15.8161
428
root 0.786121 17.478 9.74256 9.21777 -1.64013 -8.18104
lowerback -3.98017 2.61482 8.30994
upperback -8.87775 3.55896 0.35943
thorax -6.65961 1.24426 -4.30698
lowerneck -7.17241 -4.86283 -3.313
upperneck 28.5899 -8.93161 8.82814
head 10.9383 -3.48409 2.72841
rclavicle 2.71341e-014 1.03368e-014
rhumerus 19.3319 39.7006 -64.8733
rradius 136.933
rwrist -19.5048
rhand 1.48529 -65.6551
rfingers 7.12502
rthumb 27.0122 93.7435
lclavicle 2.71341e-014 1.03368e-014
lhumerus -54.3033 50.5303 44.7002
lradius 28.8947
lwrist -9.52095
lhand -30.4079 -26.1944
lfingers 7.12502
lthumb -3.71134 3.75307
rfemur -2.16885 24.4569 25.0486
rtibia 3.4267
rfoot -13.9245 -25.9964
rtoes 4.5222
lfemur 8.78631 -45.0198 -16.454
ltibia -5.01914
lfoot -26.6751 53.6462
ltoes 15.3458
429
root 0.788266 17.4773 9.73818 9.11369 -1.35371 -8.19699
lowerback -3.90651 2.59529 8.39148
upperback -8.94337 3.54533 0.353564
thorax -6.77309 1.22524 -4.36401
lowerneck -7.1773 -4.92786 -3.40937
upperneck 28.2372 -8.99727 8.92027
head 10.8193 -3.52395 2.76427
rclavicle 3.67752e-015 -2.70347e-014
rhumerus 19.9477 39.3263 -64.1694
rradius 136.878
rwrist -19.0372
rhand 1.62033 -65.1506
rfingers 7.12502
rthumb 27.1414 93.219
lclavicle 3.67752e-015 -2.70347e-014
lhumerus -51.8959 50.1445 47.3183
lradius 29.6237
lwrist -8.53226
lhand -29.7291 -28.4491
lfingers 7.12502
lthumb -3.05584 1.50875
rfemur -1.99296 24.4189 25.1534
rtibia 3.36222
rfoot -13.993 -26.221
rtoes 4.8238
lfemur 8.75958 -44.9046 -16.3588
ltibia -5.05684
lfoot -26.0653 53.3807
ltoes 14.9546
